<svg xmlns="http://www.w3.org/2000/svg" viewBox="0 0 1920 1080"><defs><style>.a{fill:#0a1940;}.b{fill:#1e326a;}.c{fill:#0d5f58;}.d{fill:#238a6a;}.e{fill:#fdd16a;}.f{fill:#e7931c;}.g{fill:#c85705;}.h{fill:#671307;}</style></defs><title>bg</title><rect class="a" width="1920" height="1080"/><polygon class="b" points="0 1080 1920 1080 1920 0 1041 0 0 937 0 1080"/><polygon class="c" points="0 1080 1920 1080 1920 0 1257 0 0 1017 0 1080"/><polygon class="d" points="0 1080 1920 1080 1920 0 1357 0 0 1080"/><polygon class="e" points="1920 1080 1920 0 1413 0 45 1080 1920 1080"/><polygon class="f" points="1920 0 1445 0 89 1080 1920 1080 1920 0"/><polygon class="g" points="201 1080 1920 1080 1920 0 201 1080"/><polyline class="h" points="1920 1080 1920 0 1545 1080"/></svg>